<mxfile host="app.diagrams.net" modified="2023-10-23T08:51:13.689Z" agent="Mozilla/5.0 (Macintosh; Intel Mac OS X 10_15_7) AppleWebKit/537.36 (KHTML, like Gecko) Chrome/111.0.0.0 Safari/537.36" etag="evNlNT0tyjXFcbGMBoJP" version="22.0.6" type="device" pages="2">
  <diagram name="Экскурсовод" id="apA9sKYQiiPHruU5bzmN">
    <mxGraphModel dx="1460" dy="1291" grid="1" gridSize="10" guides="1" tooltips="1" connect="1" arrows="1" fold="1" page="1" pageScale="1" pageWidth="1442" pageHeight="2039" math="0" shadow="0">
      <root>
        <mxCell id="0" />
        <mxCell id="1" parent="0" />
        <mxCell id="MhdM7lBt8eqxDR9OyokK-6" value="Экскурсовод" style="shape=umlLifeline;perimeter=lifelinePerimeter;whiteSpace=wrap;html=1;container=1;dropTarget=0;collapsible=0;recursiveResize=0;outlineConnect=0;portConstraint=eastwest;newEdgeStyle={&quot;curved&quot;:0,&quot;rounded&quot;:0};participant=umlActor;size=60;" parent="1" vertex="1">
          <mxGeometry x="120" y="90" width="40" height="900" as="geometry" />
        </mxCell>
        <mxCell id="MhdM7lBt8eqxDR9OyokK-7" value="" style="html=1;points=[[0,0,0,0,5],[0,1,0,0,-5],[1,0,0,0,5],[1,1,0,0,-5]];perimeter=orthogonalPerimeter;outlineConnect=0;targetShapes=umlLifeline;portConstraint=eastwest;newEdgeStyle={&quot;curved&quot;:0,&quot;rounded&quot;:0};" parent="MhdM7lBt8eqxDR9OyokK-6" vertex="1">
          <mxGeometry x="15" y="90" width="10" height="810" as="geometry" />
        </mxCell>
        <mxCell id="MhdM7lBt8eqxDR9OyokK-11" value="" style="endArrow=classic;html=1;rounded=0;" parent="1" source="MhdM7lBt8eqxDR9OyokK-7" edge="1">
          <mxGeometry width="50" height="50" relative="1" as="geometry">
            <mxPoint x="220" y="430" as="sourcePoint" />
            <mxPoint x="335" y="220" as="targetPoint" />
            <Array as="points">
              <mxPoint x="240" y="220" />
            </Array>
          </mxGeometry>
        </mxCell>
        <mxCell id="MhdM7lBt8eqxDR9OyokK-12" value="Ввод (логин, пароль)" style="edgeLabel;html=1;align=center;verticalAlign=middle;resizable=0;points=[];" parent="MhdM7lBt8eqxDR9OyokK-11" vertex="1" connectable="0">
          <mxGeometry x="-0.2308" y="-2" relative="1" as="geometry">
            <mxPoint x="15" y="-12" as="offset" />
          </mxGeometry>
        </mxCell>
        <mxCell id="MhdM7lBt8eqxDR9OyokK-15" value="alt" style="shape=umlFrame;whiteSpace=wrap;html=1;pointerEvents=0;" parent="1" vertex="1">
          <mxGeometry x="260" y="250" width="1110" height="900" as="geometry" />
        </mxCell>
        <mxCell id="MhdM7lBt8eqxDR9OyokK-22" value="" style="html=1;points=[[0,0,0,0,5],[0,1,0,0,-5],[1,0,0,0,5],[1,1,0,0,-5]];perimeter=orthogonalPerimeter;outlineConnect=0;targetShapes=umlLifeline;portConstraint=eastwest;newEdgeStyle={&quot;curved&quot;:0,&quot;rounded&quot;:0};" parent="1" vertex="1">
          <mxGeometry x="505" y="280" width="10" height="80" as="geometry" />
        </mxCell>
        <mxCell id="MhdM7lBt8eqxDR9OyokK-23" value="" style="endArrow=classic;html=1;rounded=0;" parent="1" target="MhdM7lBt8eqxDR9OyokK-22" edge="1">
          <mxGeometry width="50" height="50" relative="1" as="geometry">
            <mxPoint x="345" y="300" as="sourcePoint" />
            <mxPoint x="390" y="440" as="targetPoint" />
            <Array as="points">
              <mxPoint x="430" y="300" />
            </Array>
          </mxGeometry>
        </mxCell>
        <mxCell id="MhdM7lBt8eqxDR9OyokK-24" value="Проверка данных" style="edgeLabel;html=1;align=center;verticalAlign=middle;resizable=0;points=[];" parent="MhdM7lBt8eqxDR9OyokK-23" vertex="1" connectable="0">
          <mxGeometry x="0.025" y="-1" relative="1" as="geometry">
            <mxPoint y="-11" as="offset" />
          </mxGeometry>
        </mxCell>
        <mxCell id="MhdM7lBt8eqxDR9OyokK-26" value="" style="html=1;points=[[0,0,0,0,5],[0,1,0,0,-5],[1,0,0,0,5],[1,1,0,0,-5]];perimeter=orthogonalPerimeter;outlineConnect=0;targetShapes=umlLifeline;portConstraint=eastwest;newEdgeStyle={&quot;curved&quot;:0,&quot;rounded&quot;:0};" parent="1" vertex="1">
          <mxGeometry x="515" y="330" width="10" height="20" as="geometry" />
        </mxCell>
        <mxCell id="MhdM7lBt8eqxDR9OyokK-27" value="" style="endArrow=classic;html=1;rounded=0;entryX=1;entryY=1;entryDx=0;entryDy=-5;entryPerimeter=0;" parent="1" source="MhdM7lBt8eqxDR9OyokK-22" target="MhdM7lBt8eqxDR9OyokK-26" edge="1">
          <mxGeometry width="50" height="50" relative="1" as="geometry">
            <mxPoint x="520" y="330" as="sourcePoint" />
            <mxPoint x="390" y="440" as="targetPoint" />
            <Array as="points">
              <mxPoint x="550" y="310" />
              <mxPoint x="550" y="345" />
            </Array>
          </mxGeometry>
        </mxCell>
        <mxCell id="MhdM7lBt8eqxDR9OyokK-29" value="Проверка данных" style="edgeLabel;html=1;align=center;verticalAlign=middle;resizable=0;points=[];" parent="MhdM7lBt8eqxDR9OyokK-27" vertex="1" connectable="0">
          <mxGeometry x="-0.3869" y="1" relative="1" as="geometry">
            <mxPoint x="56" y="11" as="offset" />
          </mxGeometry>
        </mxCell>
        <mxCell id="MhdM7lBt8eqxDR9OyokK-30" value="Результат()" style="html=1;verticalAlign=bottom;endArrow=open;dashed=1;endSize=8;curved=0;rounded=0;entryX=0.8;entryY=0.249;entryDx=0;entryDy=0;entryPerimeter=0;" parent="1" source="MhdM7lBt8eqxDR9OyokK-22" edge="1">
          <mxGeometry relative="1" as="geometry">
            <mxPoint x="500" y="420" as="sourcePoint" />
            <mxPoint x="343" y="346.8699999999999" as="targetPoint" />
            <Array as="points">
              <mxPoint x="430" y="347" />
            </Array>
          </mxGeometry>
        </mxCell>
        <mxCell id="MhdM7lBt8eqxDR9OyokK-31" value="Доступ к приложению()" style="html=1;verticalAlign=bottom;endArrow=open;dashed=1;endSize=8;curved=0;rounded=0;" parent="1" target="MhdM7lBt8eqxDR9OyokK-7" edge="1">
          <mxGeometry relative="1" as="geometry">
            <mxPoint x="335" y="370" as="sourcePoint" />
            <mxPoint x="355" y="390" as="targetPoint" />
            <Array as="points">
              <mxPoint x="240" y="370" />
            </Array>
          </mxGeometry>
        </mxCell>
        <mxCell id="MhdM7lBt8eqxDR9OyokK-45" value="Сохранение()" style="html=1;verticalAlign=bottom;endArrow=open;dashed=1;endSize=8;curved=0;rounded=0;" parent="1" edge="1">
          <mxGeometry x="0.3822" y="-20" relative="1" as="geometry">
            <mxPoint x="979.5" y="540" as="sourcePoint" />
            <mxPoint x="850" y="540" as="targetPoint" />
            <Array as="points" />
            <mxPoint as="offset" />
          </mxGeometry>
        </mxCell>
        <mxCell id="MhdM7lBt8eqxDR9OyokK-52" value="Сохранение()" style="html=1;verticalAlign=bottom;endArrow=open;dashed=1;endSize=8;curved=0;rounded=0;" parent="1" edge="1">
          <mxGeometry relative="1" as="geometry">
            <mxPoint x="975" y="740" as="sourcePoint" />
            <mxPoint x="850" y="740" as="targetPoint" />
            <Array as="points" />
          </mxGeometry>
        </mxCell>
        <mxCell id="3vgwnuTKoPkvqG8fdnrD-1" value="[данные корректны]" style="text;html=1;align=center;verticalAlign=middle;resizable=0;points=[];autosize=1;strokeColor=none;fillColor=none;" parent="1" vertex="1">
          <mxGeometry x="350" y="250" width="130" height="30" as="geometry" />
        </mxCell>
        <mxCell id="3vgwnuTKoPkvqG8fdnrD-2" value="Уведомление (данные не корректны)" style="html=1;verticalAlign=bottom;endArrow=open;dashed=1;endSize=8;curved=0;rounded=0;" parent="1" edge="1">
          <mxGeometry x="-0.0023" relative="1" as="geometry">
            <mxPoint x="340" y="900" as="sourcePoint" />
            <mxPoint x="150" y="900" as="targetPoint" />
            <Array as="points">
              <mxPoint x="275" y="900" />
            </Array>
            <mxPoint as="offset" />
          </mxGeometry>
        </mxCell>
        <mxCell id="3vgwnuTKoPkvqG8fdnrD-3" value="[данные не корректны]" style="text;html=1;align=center;verticalAlign=middle;resizable=0;points=[];autosize=1;strokeColor=none;fillColor=none;" parent="1" vertex="1">
          <mxGeometry x="350" y="860" width="150" height="30" as="geometry" />
        </mxCell>
        <mxCell id="WWYeSXS_emkalcDDX-8z-1" value="Форма &lt;br&gt;авторизации&amp;nbsp;" style="shape=umlLifeline;perimeter=lifelinePerimeter;whiteSpace=wrap;html=1;container=1;dropTarget=0;collapsible=0;recursiveResize=0;outlineConnect=0;portConstraint=eastwest;newEdgeStyle={&quot;curved&quot;:0,&quot;rounded&quot;:0};participant=umlBoundary;size=100;" parent="1" vertex="1">
          <mxGeometry x="260" y="70" width="160" height="890" as="geometry" />
        </mxCell>
        <mxCell id="WWYeSXS_emkalcDDX-8z-2" value="" style="html=1;points=[[0,0,0,0,5],[0,1,0,0,-5],[1,0,0,0,5],[1,1,0,0,-5]];perimeter=orthogonalPerimeter;outlineConnect=0;targetShapes=umlLifeline;portConstraint=eastwest;newEdgeStyle={&quot;curved&quot;:0,&quot;rounded&quot;:0};" parent="WWYeSXS_emkalcDDX-8z-1" vertex="1">
          <mxGeometry x="75" y="130" width="10" height="760" as="geometry" />
        </mxCell>
        <mxCell id="MhdM7lBt8eqxDR9OyokK-35" value="" style="endArrow=classic;html=1;rounded=0;" parent="1" source="MhdM7lBt8eqxDR9OyokK-7" edge="1" target="KRv85r5p0I_bqR5wjUYM-2">
          <mxGeometry width="50" height="50" relative="1" as="geometry">
            <mxPoint x="430" y="330" as="sourcePoint" />
            <mxPoint x="685" y="390" as="targetPoint" />
            <Array as="points">
              <mxPoint x="430" y="390" />
            </Array>
          </mxGeometry>
        </mxCell>
        <mxCell id="MhdM7lBt8eqxDR9OyokK-38" value="Вход" style="edgeLabel;html=1;align=center;verticalAlign=middle;resizable=0;points=[];" parent="MhdM7lBt8eqxDR9OyokK-35" vertex="1" connectable="0">
          <mxGeometry x="0.0508" y="3" relative="1" as="geometry">
            <mxPoint y="-7" as="offset" />
          </mxGeometry>
        </mxCell>
        <mxCell id="MhdM7lBt8eqxDR9OyokK-37" value="Доступ к личному кабинету()" style="html=1;verticalAlign=bottom;endArrow=open;dashed=1;endSize=8;curved=0;rounded=0;" parent="1" target="MhdM7lBt8eqxDR9OyokK-7" edge="1" source="KRv85r5p0I_bqR5wjUYM-1">
          <mxGeometry relative="1" as="geometry">
            <mxPoint x="685" y="420" as="sourcePoint" />
            <mxPoint x="410" y="300" as="targetPoint" />
            <Array as="points">
              <mxPoint x="410" y="420" />
            </Array>
          </mxGeometry>
        </mxCell>
        <mxCell id="MhdM7lBt8eqxDR9OyokK-40" value="" style="endArrow=classic;html=1;rounded=0;" parent="1" edge="1">
          <mxGeometry width="50" height="50" relative="1" as="geometry">
            <mxPoint x="150" y="450" as="sourcePoint" />
            <mxPoint x="1150" y="450" as="targetPoint" />
            <Array as="points">
              <mxPoint x="515" y="450" />
            </Array>
          </mxGeometry>
        </mxCell>
        <mxCell id="MhdM7lBt8eqxDR9OyokK-42" value="Ввод (локация, описание, дата, время, стоимость)" style="edgeLabel;html=1;align=center;verticalAlign=middle;resizable=0;points=[];" parent="MhdM7lBt8eqxDR9OyokK-40" vertex="1" connectable="0">
          <mxGeometry x="-0.1366" y="1" relative="1" as="geometry">
            <mxPoint y="-9" as="offset" />
          </mxGeometry>
        </mxCell>
        <mxCell id="MhdM7lBt8eqxDR9OyokK-48" value="" style="endArrow=classic;html=1;rounded=0;" parent="1" edge="1" target="BANFX_4L2g2Dq_e1wwvx-2">
          <mxGeometry width="50" height="50" relative="1" as="geometry">
            <mxPoint x="150" y="614.6" as="sourcePoint" />
            <mxPoint x="1344.5" y="614.6" as="targetPoint" />
            <Array as="points">
              <mxPoint x="625" y="614.6" />
            </Array>
          </mxGeometry>
        </mxCell>
        <mxCell id="MhdM7lBt8eqxDR9OyokK-49" value="Ввод (дата, время, локация)" style="edgeLabel;html=1;align=center;verticalAlign=middle;resizable=0;points=[];" parent="MhdM7lBt8eqxDR9OyokK-48" vertex="1" connectable="0">
          <mxGeometry x="-0.082" y="3" relative="1" as="geometry">
            <mxPoint y="-7" as="offset" />
          </mxGeometry>
        </mxCell>
        <mxCell id="MhdM7lBt8eqxDR9OyokK-16" value="" style="endArrow=none;dashed=1;html=1;dashPattern=1 3;strokeWidth=2;rounded=0;exitX=0;exitY=0.769;exitDx=0;exitDy=0;exitPerimeter=0;entryX=1.005;entryY=0.667;entryDx=0;entryDy=0;entryPerimeter=0;" parent="1" edge="1" target="MhdM7lBt8eqxDR9OyokK-15">
          <mxGeometry width="50" height="50" relative="1" as="geometry">
            <mxPoint x="270" y="849.9999999999999" as="sourcePoint" />
            <mxPoint x="1290" y="851" as="targetPoint" />
            <Array as="points" />
          </mxGeometry>
        </mxCell>
        <mxCell id="KRv85r5p0I_bqR5wjUYM-1" value="Личный кабинет" style="shape=umlLifeline;perimeter=lifelinePerimeter;whiteSpace=wrap;html=1;container=1;dropTarget=0;collapsible=0;recursiveResize=0;outlineConnect=0;portConstraint=eastwest;newEdgeStyle={&quot;curved&quot;:0,&quot;rounded&quot;:0};participant=umlBoundary;size=100;" parent="1" vertex="1">
          <mxGeometry x="590" y="65" width="160" height="855" as="geometry" />
        </mxCell>
        <mxCell id="KRv85r5p0I_bqR5wjUYM-2" value="" style="html=1;points=[[0,0,0,0,5],[0,1,0,0,-5],[1,0,0,0,5],[1,1,0,0,-5]];perimeter=orthogonalPerimeter;outlineConnect=0;targetShapes=umlLifeline;portConstraint=eastwest;newEdgeStyle={&quot;curved&quot;:0,&quot;rounded&quot;:0};" parent="KRv85r5p0I_bqR5wjUYM-1" vertex="1">
          <mxGeometry x="75" y="285" width="10" height="75" as="geometry" />
        </mxCell>
        <mxCell id="BANFX_4L2g2Dq_e1wwvx-1" value="Форма&lt;br&gt;&amp;nbsp;изменения&lt;br&gt;экскурсии" style="shape=umlLifeline;perimeter=lifelinePerimeter;whiteSpace=wrap;html=1;container=1;dropTarget=0;collapsible=0;recursiveResize=0;outlineConnect=0;portConstraint=eastwest;newEdgeStyle={&quot;curved&quot;:0,&quot;rounded&quot;:0};participant=umlBoundary;size=100;" parent="1" vertex="1">
          <mxGeometry x="1260" y="65" width="160" height="855" as="geometry" />
        </mxCell>
        <mxCell id="BANFX_4L2g2Dq_e1wwvx-2" value="" style="html=1;points=[[0,0,0,0,5],[0,1,0,0,-5],[1,0,0,0,5],[1,1,0,0,-5]];perimeter=orthogonalPerimeter;outlineConnect=0;targetShapes=umlLifeline;portConstraint=eastwest;newEdgeStyle={&quot;curved&quot;:0,&quot;rounded&quot;:0};" parent="BANFX_4L2g2Dq_e1wwvx-1" vertex="1">
          <mxGeometry x="75" y="515" width="10" height="225" as="geometry" />
        </mxCell>
        <mxCell id="BANFX_4L2g2Dq_e1wwvx-3" value="Форма&lt;br&gt;&amp;nbsp;добавления&lt;br&gt;экскурсии" style="shape=umlLifeline;perimeter=lifelinePerimeter;whiteSpace=wrap;html=1;container=1;dropTarget=0;collapsible=0;recursiveResize=0;outlineConnect=0;portConstraint=eastwest;newEdgeStyle={&quot;curved&quot;:0,&quot;rounded&quot;:0};participant=umlBoundary;size=100;" parent="1" vertex="1">
          <mxGeometry x="1070" y="65" width="160" height="855" as="geometry" />
        </mxCell>
        <mxCell id="BANFX_4L2g2Dq_e1wwvx-4" value="" style="html=1;points=[[0,0,0,0,5],[0,1,0,0,-5],[1,0,0,0,5],[1,1,0,0,-5]];perimeter=orthogonalPerimeter;outlineConnect=0;targetShapes=umlLifeline;portConstraint=eastwest;newEdgeStyle={&quot;curved&quot;:0,&quot;rounded&quot;:0};" parent="BANFX_4L2g2Dq_e1wwvx-3" vertex="1">
          <mxGeometry x="75" y="370" width="10" height="170" as="geometry" />
        </mxCell>
        <mxCell id="dVF8UuHGfFQdKaLdTIyw-1" value="Уведомление (добавление завершено)" style="html=1;verticalAlign=bottom;endArrow=open;dashed=1;endSize=8;curved=0;rounded=0;" parent="1" edge="1">
          <mxGeometry x="0.0982" y="-10" relative="1" as="geometry">
            <mxPoint x="1150" y="590" as="sourcePoint" />
            <mxPoint x="149.99945945945947" y="590" as="targetPoint" />
            <Array as="points">
              <mxPoint x="700.04" y="590" />
            </Array>
            <mxPoint as="offset" />
          </mxGeometry>
        </mxCell>
        <mxCell id="dVF8UuHGfFQdKaLdTIyw-2" value="Уведомление (изменение завершено)" style="html=1;verticalAlign=bottom;endArrow=open;dashed=1;endSize=8;curved=0;rounded=0;" parent="1" edge="1">
          <mxGeometry relative="1" as="geometry">
            <mxPoint x="1335" y="800" as="sourcePoint" />
            <mxPoint x="139.875" y="800" as="targetPoint" />
            <Array as="points">
              <mxPoint x="790" y="800" />
            </Array>
          </mxGeometry>
        </mxCell>
        <mxCell id="9zFXpY8Jn_R2D8w8PnbY-6" value="База данных" style="shape=umlLifeline;perimeter=lifelinePerimeter;whiteSpace=wrap;html=1;container=1;dropTarget=0;collapsible=0;recursiveResize=0;outlineConnect=0;portConstraint=eastwest;newEdgeStyle={&quot;curved&quot;:0,&quot;rounded&quot;:0};participant=umlEntity;size=110;" vertex="1" parent="1">
          <mxGeometry x="790" y="60" width="110" height="890" as="geometry" />
        </mxCell>
        <mxCell id="MhdM7lBt8eqxDR9OyokK-51" value="" style="html=1;points=[[0,0,0,0,5],[0,1,0,0,-5],[1,0,0,0,5],[1,1,0,0,-5]];perimeter=orthogonalPerimeter;outlineConnect=0;targetShapes=umlLifeline;portConstraint=eastwest;newEdgeStyle={&quot;curved&quot;:0,&quot;rounded&quot;:0};" parent="9zFXpY8Jn_R2D8w8PnbY-6" vertex="1">
          <mxGeometry x="50" y="660" width="10" height="60" as="geometry" />
        </mxCell>
        <mxCell id="rO5lsx75B55p8-_vkY-k-2" value="" style="html=1;points=[[0,0,0,0,5],[0,1,0,0,-5],[1,0,0,0,5],[1,1,0,0,-5]];perimeter=orthogonalPerimeter;outlineConnect=0;targetShapes=umlLifeline;portConstraint=eastwest;newEdgeStyle={&quot;curved&quot;:0,&quot;rounded&quot;:0};" parent="9zFXpY8Jn_R2D8w8PnbY-6" vertex="1">
          <mxGeometry x="50" y="460" width="10" height="50" as="geometry" />
        </mxCell>
        <mxCell id="5TkrHUzN9NXci5SmOQGV-1" value="Подсистема авторизации" style="shape=umlLifeline;perimeter=lifelinePerimeter;whiteSpace=wrap;html=1;container=1;dropTarget=0;collapsible=0;recursiveResize=0;outlineConnect=0;portConstraint=eastwest;newEdgeStyle={&quot;curved&quot;:0,&quot;rounded&quot;:0};participant=umlControl;size=120;" vertex="1" parent="1">
          <mxGeometry x="447.5" y="60" width="125" height="890" as="geometry" />
        </mxCell>
        <mxCell id="5TkrHUzN9NXci5SmOQGV-2" value="Подсистема работы с экскурсиями" style="shape=umlLifeline;perimeter=lifelinePerimeter;whiteSpace=wrap;html=1;container=1;dropTarget=0;collapsible=0;recursiveResize=0;outlineConnect=0;portConstraint=eastwest;newEdgeStyle={&quot;curved&quot;:0,&quot;rounded&quot;:0};participant=umlControl;size=100;" vertex="1" parent="1">
          <mxGeometry x="920" y="60" width="120" height="830" as="geometry" />
        </mxCell>
        <mxCell id="5TkrHUzN9NXci5SmOQGV-3" value="" style="html=1;points=[[0,0,0,0,5],[0,1,0,0,-5],[1,0,0,0,5],[1,1,0,0,-5]];perimeter=orthogonalPerimeter;outlineConnect=0;targetShapes=umlLifeline;portConstraint=eastwest;newEdgeStyle={&quot;curved&quot;:0,&quot;rounded&quot;:0};" vertex="1" parent="5TkrHUzN9NXci5SmOQGV-2">
          <mxGeometry x="55" y="400" width="10" height="90" as="geometry" />
        </mxCell>
        <mxCell id="5TkrHUzN9NXci5SmOQGV-7" value="" style="html=1;points=[[0,0,0,0,5],[0,1,0,0,-5],[1,0,0,0,5],[1,1,0,0,-5]];perimeter=orthogonalPerimeter;outlineConnect=0;targetShapes=umlLifeline;portConstraint=eastwest;newEdgeStyle={&quot;curved&quot;:0,&quot;rounded&quot;:0};" vertex="1" parent="5TkrHUzN9NXci5SmOQGV-2">
          <mxGeometry x="55" y="580" width="10" height="120" as="geometry" />
        </mxCell>
        <mxCell id="5TkrHUzN9NXci5SmOQGV-6" value="Создание экскурсии()" style="html=1;verticalAlign=bottom;endArrow=open;dashed=1;endSize=8;curved=0;rounded=0;" edge="1" parent="1">
          <mxGeometry x="-0.0625" y="-12" relative="1" as="geometry">
            <mxPoint x="1145" y="492.1" as="sourcePoint" />
            <mxPoint x="985" y="492.1" as="targetPoint" />
            <Array as="points" />
            <mxPoint as="offset" />
          </mxGeometry>
        </mxCell>
        <mxCell id="5TkrHUzN9NXci5SmOQGV-8" value="Изменение экскурсии()" style="html=1;verticalAlign=bottom;endArrow=open;dashed=1;endSize=8;curved=0;rounded=0;" edge="1" parent="1">
          <mxGeometry x="-0.0625" y="-12" relative="1" as="geometry">
            <mxPoint x="1335" y="660" as="sourcePoint" />
            <mxPoint x="985" y="660" as="targetPoint" />
            <Array as="points" />
            <mxPoint as="offset" />
          </mxGeometry>
        </mxCell>
      </root>
    </mxGraphModel>
  </diagram>
  <diagram id="Mr0W2adE1dvP8_0kVqRy" name="Путешественник">
    <mxGraphModel dx="1460" dy="1291" grid="1" gridSize="10" guides="1" tooltips="1" connect="1" arrows="1" fold="1" page="1" pageScale="1" pageWidth="1442" pageHeight="2039" math="0" shadow="0">
      <root>
        <mxCell id="0" />
        <mxCell id="1" parent="0" />
        <mxCell id="Fy4yrN1enkIi9Z4MUlgT-1" value="Подсистема авторизации" style="shape=umlLifeline;perimeter=lifelinePerimeter;whiteSpace=wrap;html=1;container=1;dropTarget=0;collapsible=0;recursiveResize=0;outlineConnect=0;portConstraint=eastwest;newEdgeStyle={&quot;curved&quot;:0,&quot;rounded&quot;:0};participant=umlControl;size=100;" parent="1" vertex="1">
          <mxGeometry x="455" y="135" width="110" height="940" as="geometry" />
        </mxCell>
        <mxCell id="OTJ424GBOVYoqZg8H-qy-1" value="Путешественник" style="shape=umlLifeline;perimeter=lifelinePerimeter;whiteSpace=wrap;html=1;container=1;dropTarget=0;collapsible=0;recursiveResize=0;outlineConnect=0;portConstraint=eastwest;newEdgeStyle={&quot;curved&quot;:0,&quot;rounded&quot;:0};participant=umlActor;size=60;" parent="1" vertex="1">
          <mxGeometry x="120" y="160" width="30" height="1130" as="geometry" />
        </mxCell>
        <mxCell id="OTJ424GBOVYoqZg8H-qy-2" value="" style="html=1;points=[[0,0,0,0,5],[0,1,0,0,-5],[1,0,0,0,5],[1,1,0,0,-5]];perimeter=orthogonalPerimeter;outlineConnect=0;targetShapes=umlLifeline;portConstraint=eastwest;newEdgeStyle={&quot;curved&quot;:0,&quot;rounded&quot;:0};" parent="OTJ424GBOVYoqZg8H-qy-1" vertex="1">
          <mxGeometry x="10" y="90" width="10" height="1040" as="geometry" />
        </mxCell>
        <mxCell id="OTJ424GBOVYoqZg8H-qy-7" value="" style="endArrow=classic;html=1;rounded=0;" parent="1" source="OTJ424GBOVYoqZg8H-qy-2" edge="1">
          <mxGeometry width="50" height="50" relative="1" as="geometry">
            <mxPoint x="220" y="430" as="sourcePoint" />
            <mxPoint x="335" y="270" as="targetPoint" />
            <Array as="points">
              <mxPoint x="240" y="270" />
            </Array>
          </mxGeometry>
        </mxCell>
        <mxCell id="OTJ424GBOVYoqZg8H-qy-8" value="Ввод логина и пароля" style="edgeLabel;html=1;align=center;verticalAlign=middle;resizable=0;points=[];" parent="OTJ424GBOVYoqZg8H-qy-7" vertex="1" connectable="0">
          <mxGeometry x="-0.2308" y="-2" relative="1" as="geometry">
            <mxPoint x="15" y="-12" as="offset" />
          </mxGeometry>
        </mxCell>
        <mxCell id="OTJ424GBOVYoqZg8H-qy-11" value="alt" style="shape=umlFrame;whiteSpace=wrap;html=1;pointerEvents=0;" parent="1" vertex="1">
          <mxGeometry x="260" y="290" width="1250" height="920" as="geometry" />
        </mxCell>
        <mxCell id="OTJ424GBOVYoqZg8H-qy-13" value="" style="html=1;points=[[0,0,0,0,5],[0,1,0,0,-5],[1,0,0,0,5],[1,1,0,0,-5]];perimeter=orthogonalPerimeter;outlineConnect=0;targetShapes=umlLifeline;portConstraint=eastwest;newEdgeStyle={&quot;curved&quot;:0,&quot;rounded&quot;:0};" parent="1" vertex="1">
          <mxGeometry x="505" y="310" width="10" height="80" as="geometry" />
        </mxCell>
        <mxCell id="OTJ424GBOVYoqZg8H-qy-14" value="" style="endArrow=classic;html=1;rounded=0;" parent="1" target="OTJ424GBOVYoqZg8H-qy-13" edge="1">
          <mxGeometry width="50" height="50" relative="1" as="geometry">
            <mxPoint x="345" y="349.9999999999998" as="sourcePoint" />
            <mxPoint x="390" y="440" as="targetPoint" />
            <Array as="points">
              <mxPoint x="430" y="350" />
            </Array>
          </mxGeometry>
        </mxCell>
        <mxCell id="OTJ424GBOVYoqZg8H-qy-15" value="Проверка данных" style="edgeLabel;html=1;align=center;verticalAlign=middle;resizable=0;points=[];" parent="OTJ424GBOVYoqZg8H-qy-14" vertex="1" connectable="0">
          <mxGeometry x="0.025" y="-1" relative="1" as="geometry">
            <mxPoint y="-11" as="offset" />
          </mxGeometry>
        </mxCell>
        <mxCell id="OTJ424GBOVYoqZg8H-qy-16" value="" style="html=1;points=[[0,0,0,0,5],[0,1,0,0,-5],[1,0,0,0,5],[1,1,0,0,-5]];perimeter=orthogonalPerimeter;outlineConnect=0;targetShapes=umlLifeline;portConstraint=eastwest;newEdgeStyle={&quot;curved&quot;:0,&quot;rounded&quot;:0};" parent="1" vertex="1">
          <mxGeometry x="515" y="350" width="10" height="20" as="geometry" />
        </mxCell>
        <mxCell id="OTJ424GBOVYoqZg8H-qy-17" value="" style="endArrow=classic;html=1;rounded=0;entryX=1;entryY=1;entryDx=0;entryDy=-5;entryPerimeter=0;" parent="1" source="OTJ424GBOVYoqZg8H-qy-13" target="OTJ424GBOVYoqZg8H-qy-16" edge="1">
          <mxGeometry width="50" height="50" relative="1" as="geometry">
            <mxPoint x="520" y="330" as="sourcePoint" />
            <mxPoint x="390" y="440" as="targetPoint" />
            <Array as="points">
              <mxPoint x="550" y="330" />
              <mxPoint x="550" y="350" />
              <mxPoint x="550" y="365" />
            </Array>
          </mxGeometry>
        </mxCell>
        <mxCell id="OTJ424GBOVYoqZg8H-qy-18" value="Проверка данных" style="edgeLabel;html=1;align=center;verticalAlign=middle;resizable=0;points=[];" parent="OTJ424GBOVYoqZg8H-qy-17" vertex="1" connectable="0">
          <mxGeometry x="-0.3869" y="1" relative="1" as="geometry">
            <mxPoint x="56" y="11" as="offset" />
          </mxGeometry>
        </mxCell>
        <mxCell id="OTJ424GBOVYoqZg8H-qy-19" value="Результат()" style="html=1;verticalAlign=bottom;endArrow=open;dashed=1;endSize=8;curved=0;rounded=0;" parent="1" source="OTJ424GBOVYoqZg8H-qy-13" edge="1">
          <mxGeometry relative="1" as="geometry">
            <mxPoint x="500" y="420" as="sourcePoint" />
            <mxPoint x="345" y="379.9999999999998" as="targetPoint" />
            <Array as="points">
              <mxPoint x="430" y="380" />
            </Array>
          </mxGeometry>
        </mxCell>
        <mxCell id="OTJ424GBOVYoqZg8H-qy-20" value="Доступ к приложению()" style="html=1;verticalAlign=bottom;endArrow=open;dashed=1;endSize=8;curved=0;rounded=0;" parent="1" target="OTJ424GBOVYoqZg8H-qy-2" edge="1">
          <mxGeometry relative="1" as="geometry">
            <mxPoint x="335" y="419.9999999999998" as="sourcePoint" />
            <mxPoint x="355" y="390" as="targetPoint" />
            <Array as="points">
              <mxPoint x="330" y="420" />
              <mxPoint x="240" y="420" />
            </Array>
          </mxGeometry>
        </mxCell>
        <mxCell id="OTJ424GBOVYoqZg8H-qy-36" value="Сохранение()" style="html=1;verticalAlign=bottom;endArrow=open;dashed=1;endSize=8;curved=0;rounded=0;" parent="1" source="Ke90wFm6TMbnxvfQH0uS-6" edge="1">
          <mxGeometry x="0.1946" y="-10" relative="1" as="geometry">
            <mxPoint x="1275" y="749.57" as="sourcePoint" />
            <mxPoint x="650" y="749.57" as="targetPoint" />
            <Array as="points">
              <mxPoint x="790" y="749.57" />
            </Array>
            <mxPoint as="offset" />
          </mxGeometry>
        </mxCell>
        <mxCell id="9nLLxcs9-lsYUk25ZylM-5" value="" style="endArrow=classic;html=1;rounded=0;" parent="1" source="OTJ424GBOVYoqZg8H-qy-2" target="WyDMbBPehi8zHSmIncTb-6" edge="1">
          <mxGeometry width="50" height="50" relative="1" as="geometry">
            <mxPoint x="630" y="780" as="sourcePoint" />
            <mxPoint x="1250" y="820" as="targetPoint" />
            <Array as="points">
              <mxPoint x="690" y="820" />
            </Array>
          </mxGeometry>
        </mxCell>
        <mxCell id="9nLLxcs9-lsYUk25ZylM-6" value="Выбор забронированной экскурсии" style="edgeLabel;html=1;align=center;verticalAlign=middle;resizable=0;points=[];" parent="9nLLxcs9-lsYUk25ZylM-5" vertex="1" connectable="0">
          <mxGeometry x="-0.1779" y="1" relative="1" as="geometry">
            <mxPoint y="-9" as="offset" />
          </mxGeometry>
        </mxCell>
        <mxCell id="9nLLxcs9-lsYUk25ZylM-8" value="Сохранение()" style="html=1;verticalAlign=bottom;endArrow=open;dashed=1;endSize=8;curved=0;rounded=0;" parent="1" edge="1">
          <mxGeometry relative="1" as="geometry">
            <mxPoint x="781" y="870" as="sourcePoint" />
            <mxPoint x="650" y="870" as="targetPoint" />
            <Array as="points" />
          </mxGeometry>
        </mxCell>
        <mxCell id="zFmyxN2KfRmIIOsHh7d0-1" value="[данные корректны]" style="text;html=1;align=center;verticalAlign=middle;resizable=0;points=[];autosize=1;strokeColor=none;fillColor=none;" parent="1" vertex="1">
          <mxGeometry x="360" y="290" width="130" height="30" as="geometry" />
        </mxCell>
        <mxCell id="zFmyxN2KfRmIIOsHh7d0-2" value="[данные не корректны]" style="text;html=1;align=center;verticalAlign=middle;resizable=0;points=[];autosize=1;strokeColor=none;fillColor=none;" parent="1" vertex="1">
          <mxGeometry x="355" y="1075" width="150" height="30" as="geometry" />
        </mxCell>
        <mxCell id="lsKOQ85Q5rxc8TNIf6Fz-1" value="Уведомление (данные не корректны)" style="html=1;verticalAlign=bottom;endArrow=open;dashed=1;endSize=8;curved=0;rounded=0;" parent="1" edge="1">
          <mxGeometry x="-0.0524" y="-10" relative="1" as="geometry">
            <mxPoint x="335" y="1170" as="sourcePoint" />
            <mxPoint x="140" y="1170" as="targetPoint" />
            <Array as="points">
              <mxPoint x="250" y="1170" />
            </Array>
            <mxPoint as="offset" />
          </mxGeometry>
        </mxCell>
        <mxCell id="WyDMbBPehi8zHSmIncTb-1" value="Форма&lt;br&gt;&amp;nbsp;отмены&lt;br&gt;&amp;nbsp;бронирования&amp;nbsp;&lt;br&gt;экскурсии" style="shape=umlLifeline;perimeter=lifelinePerimeter;whiteSpace=wrap;html=1;container=1;dropTarget=0;collapsible=0;recursiveResize=0;outlineConnect=0;portConstraint=eastwest;newEdgeStyle={&quot;curved&quot;:0,&quot;rounded&quot;:0};participant=umlBoundary;size=100;" parent="1" vertex="1">
          <mxGeometry x="1390" y="140" width="160" height="930" as="geometry" />
        </mxCell>
        <mxCell id="WyDMbBPehi8zHSmIncTb-6" value="" style="html=1;points=[[0,0,0,0,5],[0,1,0,0,-5],[1,0,0,0,5],[1,1,0,0,-5]];perimeter=orthogonalPerimeter;outlineConnect=0;targetShapes=umlLifeline;portConstraint=eastwest;newEdgeStyle={&quot;curved&quot;:0,&quot;rounded&quot;:0};" parent="WyDMbBPehi8zHSmIncTb-1" vertex="1">
          <mxGeometry x="75" y="670" width="10" height="170" as="geometry" />
        </mxCell>
        <mxCell id="WyDMbBPehi8zHSmIncTb-4" value="Форма&lt;br&gt;&amp;nbsp;изменения&lt;br&gt;бронирования&amp;nbsp;&lt;br&gt;экскурсии" style="shape=umlLifeline;perimeter=lifelinePerimeter;whiteSpace=wrap;html=1;container=1;dropTarget=0;collapsible=0;recursiveResize=0;outlineConnect=0;portConstraint=eastwest;newEdgeStyle={&quot;curved&quot;:0,&quot;rounded&quot;:0};participant=umlBoundary;size=100;" parent="1" vertex="1">
          <mxGeometry x="1200" y="140" width="160" height="930" as="geometry" />
        </mxCell>
        <mxCell id="WyDMbBPehi8zHSmIncTb-7" value="" style="html=1;points=[[0,0,0,0,5],[0,1,0,0,-5],[1,0,0,0,5],[1,1,0,0,-5]];perimeter=orthogonalPerimeter;outlineConnect=0;targetShapes=umlLifeline;portConstraint=eastwest;newEdgeStyle={&quot;curved&quot;:0,&quot;rounded&quot;:0};" parent="WyDMbBPehi8zHSmIncTb-4" vertex="1">
          <mxGeometry x="75" y="520" width="10" height="140" as="geometry" />
        </mxCell>
        <mxCell id="WyDMbBPehi8zHSmIncTb-5" value="Форма &lt;br&gt;бронирования&amp;nbsp;&lt;br&gt;экскурсии" style="shape=umlLifeline;perimeter=lifelinePerimeter;whiteSpace=wrap;html=1;container=1;dropTarget=0;collapsible=0;recursiveResize=0;outlineConnect=0;portConstraint=eastwest;newEdgeStyle={&quot;curved&quot;:0,&quot;rounded&quot;:0};participant=umlBoundary;size=100;" parent="1" vertex="1">
          <mxGeometry x="1030" y="140" width="160" height="930" as="geometry" />
        </mxCell>
        <mxCell id="WyDMbBPehi8zHSmIncTb-8" value="" style="html=1;points=[[0,0,0,0,5],[0,1,0,0,-5],[1,0,0,0,5],[1,1,0,0,-5]];perimeter=orthogonalPerimeter;outlineConnect=0;targetShapes=umlLifeline;portConstraint=eastwest;newEdgeStyle={&quot;curved&quot;:0,&quot;rounded&quot;:0};" parent="WyDMbBPehi8zHSmIncTb-5" vertex="1">
          <mxGeometry x="75" y="320" width="10" height="210" as="geometry" />
        </mxCell>
        <mxCell id="WyDMbBPehi8zHSmIncTb-9" value="Личный кабинет" style="shape=umlLifeline;perimeter=lifelinePerimeter;whiteSpace=wrap;html=1;container=1;dropTarget=0;collapsible=0;recursiveResize=0;outlineConnect=0;portConstraint=eastwest;newEdgeStyle={&quot;curved&quot;:0,&quot;rounded&quot;:0};participant=umlBoundary;size=100;" parent="1" vertex="1">
          <mxGeometry x="850" y="135" width="160" height="930" as="geometry" />
        </mxCell>
        <mxCell id="WyDMbBPehi8zHSmIncTb-10" value="" style="html=1;points=[[0,0,0,0,5],[0,1,0,0,-5],[1,0,0,0,5],[1,1,0,0,-5]];perimeter=orthogonalPerimeter;outlineConnect=0;targetShapes=umlLifeline;portConstraint=eastwest;newEdgeStyle={&quot;curved&quot;:0,&quot;rounded&quot;:0};" parent="WyDMbBPehi8zHSmIncTb-9" vertex="1">
          <mxGeometry x="75" y="245" width="10" height="110" as="geometry" />
        </mxCell>
        <mxCell id="WyDMbBPehi8zHSmIncTb-11" value="Форма &lt;br&gt;авторизации&amp;nbsp;" style="shape=umlLifeline;perimeter=lifelinePerimeter;whiteSpace=wrap;html=1;container=1;dropTarget=0;collapsible=0;recursiveResize=0;outlineConnect=0;portConstraint=eastwest;newEdgeStyle={&quot;curved&quot;:0,&quot;rounded&quot;:0};participant=umlBoundary;size=100;" parent="1" vertex="1">
          <mxGeometry x="260" y="130" width="160" height="1140" as="geometry" />
        </mxCell>
        <mxCell id="WyDMbBPehi8zHSmIncTb-12" value="" style="html=1;points=[[0,0,0,0,5],[0,1,0,0,-5],[1,0,0,0,5],[1,1,0,0,-5]];perimeter=orthogonalPerimeter;outlineConnect=0;targetShapes=umlLifeline;portConstraint=eastwest;newEdgeStyle={&quot;curved&quot;:0,&quot;rounded&quot;:0};" parent="WyDMbBPehi8zHSmIncTb-11" vertex="1">
          <mxGeometry x="75" y="130" width="10" height="1010" as="geometry" />
        </mxCell>
        <mxCell id="OTJ424GBOVYoqZg8H-qy-25" value="Доступ к личному кабинету()" style="html=1;verticalAlign=bottom;endArrow=open;dashed=1;endSize=8;curved=0;rounded=0;" parent="1" edge="1">
          <mxGeometry relative="1" as="geometry">
            <mxPoint x="929.5" y="470" as="sourcePoint" />
            <mxPoint x="140" y="470" as="targetPoint" />
            <Array as="points">
              <mxPoint x="400" y="470" />
            </Array>
          </mxGeometry>
        </mxCell>
        <mxCell id="OTJ424GBOVYoqZg8H-qy-23" value="" style="endArrow=classic;html=1;rounded=0;" parent="1" edge="1">
          <mxGeometry width="50" height="50" relative="1" as="geometry">
            <mxPoint x="140" y="430" as="sourcePoint" />
            <mxPoint x="925" y="430" as="targetPoint" />
            <Array as="points">
              <mxPoint x="420" y="430" />
            </Array>
          </mxGeometry>
        </mxCell>
        <mxCell id="OTJ424GBOVYoqZg8H-qy-24" value="Вход" style="edgeLabel;html=1;align=center;verticalAlign=middle;resizable=0;points=[];" parent="OTJ424GBOVYoqZg8H-qy-23" vertex="1" connectable="0">
          <mxGeometry x="0.0508" y="3" relative="1" as="geometry">
            <mxPoint y="-7" as="offset" />
          </mxGeometry>
        </mxCell>
        <mxCell id="OTJ424GBOVYoqZg8H-qy-28" value="" style="endArrow=classic;html=1;rounded=0;" parent="1" edge="1">
          <mxGeometry width="50" height="50" relative="1" as="geometry">
            <mxPoint x="140" y="510" as="sourcePoint" />
            <mxPoint x="1105" y="510" as="targetPoint" />
            <Array as="points">
              <mxPoint x="510" y="510" />
            </Array>
          </mxGeometry>
        </mxCell>
        <mxCell id="OTJ424GBOVYoqZg8H-qy-29" value="Ввод&amp;nbsp; (локация, дата, время, стоимость)" style="edgeLabel;html=1;align=center;verticalAlign=middle;resizable=0;points=[];" parent="OTJ424GBOVYoqZg8H-qy-28" vertex="1" connectable="0">
          <mxGeometry x="-0.1366" y="1" relative="1" as="geometry">
            <mxPoint x="47" y="-9" as="offset" />
          </mxGeometry>
        </mxCell>
        <mxCell id="9nLLxcs9-lsYUk25ZylM-2" value="Уведомление (успешное бронирование)" style="html=1;verticalAlign=bottom;endArrow=open;dashed=1;endSize=8;curved=0;rounded=0;exitX=0.5;exitY=0.864;exitDx=0;exitDy=0;exitPerimeter=0;" parent="1" edge="1">
          <mxGeometry relative="1" as="geometry">
            <mxPoint x="1110" y="650.04" as="sourcePoint" />
            <mxPoint x="140" y="650" as="targetPoint" />
            <Array as="points">
              <mxPoint x="500" y="650" />
            </Array>
          </mxGeometry>
        </mxCell>
        <mxCell id="OTJ424GBOVYoqZg8H-qy-33" value="" style="endArrow=classic;html=1;rounded=0;" parent="1" edge="1">
          <mxGeometry width="50" height="50" relative="1" as="geometry">
            <mxPoint x="140" y="680" as="sourcePoint" />
            <mxPoint x="1275" y="680" as="targetPoint" />
            <Array as="points">
              <mxPoint x="610" y="680" />
            </Array>
          </mxGeometry>
        </mxCell>
        <mxCell id="OTJ424GBOVYoqZg8H-qy-34" value="Ввод (дата/время проведения)" style="edgeLabel;html=1;align=center;verticalAlign=middle;resizable=0;points=[];" parent="OTJ424GBOVYoqZg8H-qy-33" vertex="1" connectable="0">
          <mxGeometry x="-0.082" y="3" relative="1" as="geometry">
            <mxPoint x="22" y="-7" as="offset" />
          </mxGeometry>
        </mxCell>
        <mxCell id="9nLLxcs9-lsYUk25ZylM-3" value="Уведомление (бронирование изменено)" style="html=1;verticalAlign=bottom;endArrow=open;dashed=1;endSize=8;curved=0;rounded=0;" parent="1" edge="1">
          <mxGeometry x="-0.1209" relative="1" as="geometry">
            <mxPoint x="1275" y="790" as="sourcePoint" />
            <mxPoint x="140" y="790" as="targetPoint" />
            <Array as="points">
              <mxPoint x="510" y="790" />
            </Array>
            <mxPoint as="offset" />
          </mxGeometry>
        </mxCell>
        <mxCell id="9nLLxcs9-lsYUk25ZylM-9" value="Уведомление (бронирование отменено)" style="html=1;verticalAlign=bottom;endArrow=open;dashed=1;endSize=8;curved=0;rounded=0;" parent="1" edge="1">
          <mxGeometry x="-0.1209" relative="1" as="geometry">
            <mxPoint x="1465" y="960" as="sourcePoint" />
            <mxPoint x="140" y="960" as="targetPoint" />
            <Array as="points">
              <mxPoint x="510" y="960" />
            </Array>
            <mxPoint as="offset" />
          </mxGeometry>
        </mxCell>
        <mxCell id="9nLLxcs9-lsYUk25ZylM-10" value="" style="endArrow=none;dashed=1;html=1;dashPattern=1 3;strokeWidth=2;rounded=0;entryX=1.002;entryY=0.856;entryDx=0;entryDy=0;entryPerimeter=0;exitX=-0.004;exitY=0.85;exitDx=0;exitDy=0;exitPerimeter=0;" parent="1" target="OTJ424GBOVYoqZg8H-qy-11" edge="1" source="OTJ424GBOVYoqZg8H-qy-11">
          <mxGeometry width="50" height="50" relative="1" as="geometry">
            <mxPoint x="260" y="930" as="sourcePoint" />
            <mxPoint x="740" y="620" as="targetPoint" />
            <Array as="points">
              <mxPoint x="780" y="1070" />
            </Array>
          </mxGeometry>
        </mxCell>
        <mxCell id="c3QcqgcqOXE689poq2zj-2" value="" style="html=1;verticalAlign=bottom;endArrow=open;dashed=1;endSize=8;curved=0;rounded=0;" parent="1" edge="1">
          <mxGeometry relative="1" as="geometry">
            <mxPoint x="1110" y="550" as="sourcePoint" />
            <mxPoint x="790" y="550" as="targetPoint" />
            <Array as="points">
              <mxPoint x="830" y="550" />
            </Array>
          </mxGeometry>
        </mxCell>
        <mxCell id="PInzAPDnCAmYx5UMwqnT-11" value="Добавление брони()" style="edgeLabel;html=1;align=center;verticalAlign=middle;resizable=0;points=[];" vertex="1" connectable="0" parent="c3QcqgcqOXE689poq2zj-2">
          <mxGeometry x="0.3732" y="2" relative="1" as="geometry">
            <mxPoint x="-4" y="-12" as="offset" />
          </mxGeometry>
        </mxCell>
        <mxCell id="PInzAPDnCAmYx5UMwqnT-10" value="База данных" style="shape=umlLifeline;perimeter=lifelinePerimeter;whiteSpace=wrap;html=1;container=1;dropTarget=0;collapsible=0;recursiveResize=0;outlineConnect=0;portConstraint=eastwest;newEdgeStyle={&quot;curved&quot;:0,&quot;rounded&quot;:0};participant=umlEntity;size=90;" vertex="1" parent="1">
          <mxGeometry x="600" y="140" width="90" height="920" as="geometry" />
        </mxCell>
        <mxCell id="c3QcqgcqOXE689poq2zj-1" value="" style="html=1;points=[[0,0,0,0,5],[0,1,0,0,-5],[1,0,0,0,5],[1,1,0,0,-5]];perimeter=orthogonalPerimeter;outlineConnect=0;targetShapes=umlLifeline;portConstraint=eastwest;newEdgeStyle={&quot;curved&quot;:0,&quot;rounded&quot;:0};" parent="PInzAPDnCAmYx5UMwqnT-10" vertex="1">
          <mxGeometry x="40" y="400" width="10" height="80" as="geometry" />
        </mxCell>
        <mxCell id="OTJ424GBOVYoqZg8H-qy-35" value="" style="html=1;points=[[0,0,0,0,5],[0,1,0,0,-5],[1,0,0,0,5],[1,1,0,0,-5]];perimeter=orthogonalPerimeter;outlineConnect=0;targetShapes=umlLifeline;portConstraint=eastwest;newEdgeStyle={&quot;curved&quot;:0,&quot;rounded&quot;:0};" parent="PInzAPDnCAmYx5UMwqnT-10" vertex="1">
          <mxGeometry x="40" y="570" width="10" height="60" as="geometry" />
        </mxCell>
        <mxCell id="9nLLxcs9-lsYUk25ZylM-4" value="" style="html=1;points=[[0,0,0,0,5],[0,1,0,0,-5],[1,0,0,0,5],[1,1,0,0,-5]];perimeter=orthogonalPerimeter;outlineConnect=0;targetShapes=umlLifeline;portConstraint=eastwest;newEdgeStyle={&quot;curved&quot;:0,&quot;rounded&quot;:0};" parent="PInzAPDnCAmYx5UMwqnT-10" vertex="1">
          <mxGeometry x="40" y="690" width="10" height="60" as="geometry" />
        </mxCell>
        <mxCell id="Ke90wFm6TMbnxvfQH0uS-1" value="Подсистема работы с экскурсиями" style="shape=umlLifeline;perimeter=lifelinePerimeter;whiteSpace=wrap;html=1;container=1;dropTarget=0;collapsible=0;recursiveResize=0;outlineConnect=0;portConstraint=eastwest;newEdgeStyle={&quot;curved&quot;:0,&quot;rounded&quot;:0};participant=umlControl;size=100;" vertex="1" parent="1">
          <mxGeometry x="721" y="135" width="110" height="940" as="geometry" />
        </mxCell>
        <mxCell id="Ke90wFm6TMbnxvfQH0uS-2" value="" style="html=1;points=[[0,0,0,0,5],[0,1,0,0,-5],[1,0,0,0,5],[1,1,0,0,-5]];perimeter=orthogonalPerimeter;outlineConnect=0;targetShapes=umlLifeline;portConstraint=eastwest;newEdgeStyle={&quot;curved&quot;:0,&quot;rounded&quot;:0};" vertex="1" parent="Ke90wFm6TMbnxvfQH0uS-1">
          <mxGeometry x="50" y="385" width="10" height="105" as="geometry" />
        </mxCell>
        <mxCell id="Ke90wFm6TMbnxvfQH0uS-6" value="" style="html=1;points=[[0,0,0,0,5],[0,1,0,0,-5],[1,0,0,0,5],[1,1,0,0,-5]];perimeter=orthogonalPerimeter;outlineConnect=0;targetShapes=umlLifeline;portConstraint=eastwest;newEdgeStyle={&quot;curved&quot;:0,&quot;rounded&quot;:0};" vertex="1" parent="Ke90wFm6TMbnxvfQH0uS-1">
          <mxGeometry x="50" y="545" width="10" height="80" as="geometry" />
        </mxCell>
        <mxCell id="Ke90wFm6TMbnxvfQH0uS-10" value="" style="html=1;points=[[0,0,0,0,5],[0,1,0,0,-5],[1,0,0,0,5],[1,1,0,0,-5]];perimeter=orthogonalPerimeter;outlineConnect=0;targetShapes=umlLifeline;portConstraint=eastwest;newEdgeStyle={&quot;curved&quot;:0,&quot;rounded&quot;:0};" vertex="1" parent="Ke90wFm6TMbnxvfQH0uS-1">
          <mxGeometry x="50" y="685" width="10" height="80" as="geometry" />
        </mxCell>
        <mxCell id="Ke90wFm6TMbnxvfQH0uS-3" value="" style="html=1;verticalAlign=bottom;endArrow=open;dashed=1;endSize=8;curved=0;rounded=0;" edge="1" parent="1">
          <mxGeometry relative="1" as="geometry">
            <mxPoint x="770" y="580" as="sourcePoint" />
            <mxPoint x="650.0000000000002" y="580" as="targetPoint" />
            <Array as="points">
              <mxPoint x="700" y="580" />
            </Array>
          </mxGeometry>
        </mxCell>
        <mxCell id="Ke90wFm6TMbnxvfQH0uS-4" value="Сохранение()" style="edgeLabel;html=1;align=center;verticalAlign=middle;resizable=0;points=[];" vertex="1" connectable="0" parent="Ke90wFm6TMbnxvfQH0uS-3">
          <mxGeometry x="0.3732" y="2" relative="1" as="geometry">
            <mxPoint x="23" y="-17" as="offset" />
          </mxGeometry>
        </mxCell>
        <mxCell id="Ke90wFm6TMbnxvfQH0uS-7" value="" style="html=1;verticalAlign=bottom;endArrow=open;dashed=1;endSize=8;curved=0;rounded=0;" edge="1" parent="1" source="WyDMbBPehi8zHSmIncTb-7">
          <mxGeometry relative="1" as="geometry">
            <mxPoint x="1100" y="710" as="sourcePoint" />
            <mxPoint x="780" y="710" as="targetPoint" />
            <Array as="points">
              <mxPoint x="820" y="710" />
            </Array>
          </mxGeometry>
        </mxCell>
        <mxCell id="Ke90wFm6TMbnxvfQH0uS-8" value="Изменение брони()" style="edgeLabel;html=1;align=center;verticalAlign=middle;resizable=0;points=[];" vertex="1" connectable="0" parent="Ke90wFm6TMbnxvfQH0uS-7">
          <mxGeometry x="0.3732" y="2" relative="1" as="geometry">
            <mxPoint x="-4" y="-12" as="offset" />
          </mxGeometry>
        </mxCell>
        <mxCell id="Ke90wFm6TMbnxvfQH0uS-11" value="" style="html=1;verticalAlign=bottom;endArrow=open;dashed=1;endSize=8;curved=0;rounded=0;" edge="1" parent="1">
          <mxGeometry relative="1" as="geometry">
            <mxPoint x="1465" y="850" as="sourcePoint" />
            <mxPoint x="780" y="850" as="targetPoint" />
            <Array as="points">
              <mxPoint x="820" y="850" />
            </Array>
          </mxGeometry>
        </mxCell>
        <mxCell id="Ke90wFm6TMbnxvfQH0uS-12" value="Удаление брони()" style="edgeLabel;html=1;align=center;verticalAlign=middle;resizable=0;points=[];" vertex="1" connectable="0" parent="Ke90wFm6TMbnxvfQH0uS-11">
          <mxGeometry x="0.3732" y="2" relative="1" as="geometry">
            <mxPoint x="-4" y="-12" as="offset" />
          </mxGeometry>
        </mxCell>
      </root>
    </mxGraphModel>
  </diagram>
</mxfile>
